STARTFONT 2.1
COMMENT
COMMENT Converted from OpenType font "CircularStd-Book.otf" by "otf2bdf 3.0".
COMMENT
FONT -FreeType-Circular Std Book-Medium-R-Normal--14-100-100-100-P-69-ISO10646-1
SIZE 10 100 100
FONTBOUNDINGBOX 21 15 0 -3
STARTPROPERTIES 19
FOUNDRY "FreeType"
FAMILY_NAME "Circular Std Book"
WEIGHT_NAME "Medium"
SLANT "R"
SETWIDTH_NAME "Normal"
ADD_STYLE_NAME ""
PIXEL_SIZE 14
POINT_SIZE 100
RESOLUTION_X 100
RESOLUTION_Y 100
SPACING "P"
AVERAGE_WIDTH 69
CHARSET_REGISTRY "ISO10646"
CHARSET_ENCODING "1"
FONT_ASCENT 13
FONT_DESCENT 3
COPYRIGHT "Generated in 2013 by FontLab Studio. Copyright info pending."
_OTF_FONTFILE "CircularStd-Book.otf"
_OTF_PSNAME "CircularStd-Book"
ENDPROPERTIES
CHARS 332
STARTCHAR 0000
ENCODING 0
SWIDTH 0 0
DWIDTH 0 0
BBX 0 0 0 0
BITMAP
ENDCHAR
STARTCHAR 000D
ENCODING 13
SWIDTH 216 0
DWIDTH 3 0
BBX 0 0 0 0
BITMAP
ENDCHAR
STARTCHAR 0020
ENCODING 32
SWIDTH 216 0
DWIDTH 3 0
BBX 0 0 0 0
BITMAP
ENDCHAR
STARTCHAR 0021
ENCODING 33
SWIDTH 288 0
DWIDTH 4 0
BBX 2 10 1 0
BITMAP
C0
C0
C0
40
40
40
40
00
C0
C0
ENDCHAR
STARTCHAR 0022
ENCODING 34
SWIDTH 360 0
DWIDTH 5 0
BBX 4 4 1 5
BITMAP
B0
B0
A0
A0
ENDCHAR
STARTCHAR 0023
ENCODING 35
SWIDTH 720 0
DWIDTH 10 0
BBX 9 9 1 0
BITMAP
1200
3200
FF80
2400
2400
FF00
6400
4800
4800
ENDCHAR
STARTCHAR 0024
ENCODING 36
SWIDTH 576 0
DWIDTH 8 0
BBX 6 13 1 -2
BITMAP
10
10
7C
D4
90
D0
78
1C
94
D4
7C
10
10
ENDCHAR
STARTCHAR 0025
ENCODING 37
SWIDTH 792 0
DWIDTH 11 0
BBX 10 9 1 0
BITMAP
6100
9300
9200
F400
0800
1B80
16C0
26C0
4380
ENDCHAR
STARTCHAR 0026
ENCODING 38
SWIDTH 720 0
DWIDTH 10 0
BBX 8 10 1 0
BITMAP
78
48
CC
48
30
71
CA
86
CE
73
ENDCHAR
STARTCHAR 0027
ENCODING 39
SWIDTH 216 0
DWIDTH 3 0
BBX 1 4 1 5
BITMAP
80
80
80
80
ENDCHAR
STARTCHAR 0028
ENCODING 40
SWIDTH 288 0
DWIDTH 4 0
BBX 3 13 1 -2
BITMAP
20
60
40
80
80
80
80
80
80
80
40
60
20
ENDCHAR
STARTCHAR 0029
ENCODING 41
SWIDTH 288 0
DWIDTH 4 0
BBX 3 13 0 -2
BITMAP
80
40
60
20
20
20
20
20
20
20
60
40
80
ENDCHAR
STARTCHAR 002A
ENCODING 42
SWIDTH 432 0
DWIDTH 6 0
BBX 4 5 1 5
BITMAP
60
60
F0
60
90
ENDCHAR
STARTCHAR 002B
ENCODING 43
SWIDTH 576 0
DWIDTH 8 0
BBX 6 6 1 1
BITMAP
20
20
20
FC
20
20
ENDCHAR
STARTCHAR 002C
ENCODING 44
SWIDTH 288 0
DWIDTH 4 0
BBX 2 4 1 -2
BITMAP
C0
C0
40
80
ENDCHAR
STARTCHAR 002D
ENCODING 45
SWIDTH 360 0
DWIDTH 5 0
BBX 3 1 1 3
BITMAP
E0
ENDCHAR
STARTCHAR 002E
ENCODING 46
SWIDTH 288 0
DWIDTH 4 0
BBX 2 2 1 0
BITMAP
C0
C0
ENDCHAR
STARTCHAR 002F
ENCODING 47
SWIDTH 432 0
DWIDTH 6 0
BBX 6 10 0 0
BITMAP
04
08
08
10
10
20
20
40
40
80
ENDCHAR
STARTCHAR 0030
ENCODING 48
SWIDTH 648 0
DWIDTH 9 0
BBX 7 9 1 0
BITMAP
78
CC
86
86
86
86
86
CC
78
ENDCHAR
STARTCHAR 0031
ENCODING 49
SWIDTH 360 0
DWIDTH 5 0
BBX 4 9 0 0
BITMAP
10
30
F0
10
10
10
10
10
10
ENDCHAR
STARTCHAR 0032
ENCODING 50
SWIDTH 504 0
DWIDTH 7 0
BBX 6 9 1 0
BITMAP
78
C8
8C
0C
18
30
C0
80
FC
ENDCHAR
STARTCHAR 0033
ENCODING 51
SWIDTH 576 0
DWIDTH 8 0
BBX 6 9 1 0
BITMAP
FC
0C
18
30
38
0C
84
CC
78
ENDCHAR
STARTCHAR 0034
ENCODING 52
SWIDTH 576 0
DWIDTH 8 0
BBX 8 9 0 0
BITMAP
0C
1C
14
24
64
C4
FF
04
04
ENDCHAR
STARTCHAR 0035
ENCODING 53
SWIDTH 576 0
DWIDTH 8 0
BBX 6 9 1 0
BITMAP
7C
40
C0
F8
CC
04
84
CC
78
ENDCHAR
STARTCHAR 0036
ENCODING 54
SWIDTH 576 0
DWIDTH 8 0
BBX 7 9 1 0
BITMAP
3C
60
C0
B8
CC
86
86
CC
78
ENDCHAR
STARTCHAR 0037
ENCODING 55
SWIDTH 504 0
DWIDTH 7 0
BBX 7 9 0 0
BITMAP
FE
04
08
18
10
30
20
20
60
ENDCHAR
STARTCHAR 0038
ENCODING 56
SWIDTH 576 0
DWIDTH 8 0
BBX 6 9 1 0
BITMAP
78
CC
84
CC
78
8C
84
CC
78
ENDCHAR
STARTCHAR 0039
ENCODING 57
SWIDTH 576 0
DWIDTH 8 0
BBX 6 9 1 0
BITMAP
78
CC
84
84
CC
74
04
18
F0
ENDCHAR
STARTCHAR 003A
ENCODING 58
SWIDTH 288 0
DWIDTH 4 0
BBX 2 7 1 0
BITMAP
C0
C0
00
00
00
C0
C0
ENDCHAR
STARTCHAR 003B
ENCODING 59
SWIDTH 288 0
DWIDTH 4 0
BBX 2 9 1 -2
BITMAP
C0
C0
00
00
00
C0
C0
40
80
ENDCHAR
STARTCHAR 003C
ENCODING 60
SWIDTH 504 0
DWIDTH 7 0
BBX 6 6 0 1
BITMAP
04
18
E0
E0
18
04
ENDCHAR
STARTCHAR 003D
ENCODING 61
SWIDTH 576 0
DWIDTH 8 0
BBX 6 4 1 2
BITMAP
FC
00
00
FC
ENDCHAR
STARTCHAR 003E
ENCODING 62
SWIDTH 504 0
DWIDTH 7 0
BBX 6 6 0 1
BITMAP
C0
70
0C
0C
70
C0
ENDCHAR
STARTCHAR 003F
ENCODING 63
SWIDTH 504 0
DWIDTH 7 0
BBX 6 10 1 0
BITMAP
70
C8
8C
88
18
30
20
00
20
60
ENDCHAR
STARTCHAR 0040
ENCODING 64
SWIDTH 792 0
DWIDTH 11 0
BBX 10 11 1 -1
BITMAP
1E00
6180
C080
9F40
9240
A240
A2C0
9F80
C000
6100
1E00
ENDCHAR
STARTCHAR 0041
ENCODING 65
SWIDTH 720 0
DWIDTH 10 0
BBX 9 10 0 0
BITMAP
0C00
1C00
1600
1200
3200
2300
7F00
6180
4180
C080
ENDCHAR
STARTCHAR 0042
ENCODING 66
SWIDTH 576 0
DWIDTH 8 0
BBX 7 10 1 0
BITMAP
F8
CC
C4
C4
F8
C4
C6
C6
C4
FC
ENDCHAR
STARTCHAR 0043
ENCODING 67
SWIDTH 720 0
DWIDTH 10 0
BBX 9 10 1 0
BITMAP
3E00
6300
C180
8000
8000
8000
8000
C180
6300
3E00
ENDCHAR
STARTCHAR 0044
ENCODING 68
SWIDTH 720 0
DWIDTH 10 0
BBX 8 10 1 0
BITMAP
FC
C6
C3
C1
C1
C1
C1
C3
C6
FC
ENDCHAR
STARTCHAR 0045
ENCODING 69
SWIDTH 576 0
DWIDTH 8 0
BBX 6 10 1 0
BITMAP
FC
C0
C0
C0
C0
FC
C0
C0
C0
FC
ENDCHAR
STARTCHAR 0046
ENCODING 70
SWIDTH 576 0
DWIDTH 8 0
BBX 6 10 1 0
BITMAP
FC
C0
C0
C0
C0
FC
C0
C0
C0
C0
ENDCHAR
STARTCHAR 0047
ENCODING 71
SWIDTH 792 0
DWIDTH 11 0
BBX 9 10 1 0
BITMAP
3E00
6300
C180
8000
8000
8F80
8180
C180
6380
3C80
ENDCHAR
STARTCHAR 0048
ENCODING 72
SWIDTH 720 0
DWIDTH 10 0
BBX 8 10 1 0
BITMAP
C1
C1
C1
C1
FF
C1
C1
C1
C1
C1
ENDCHAR
STARTCHAR 0049
ENCODING 73
SWIDTH 288 0
DWIDTH 4 0
BBX 2 10 1 0
BITMAP
C0
C0
C0
C0
C0
C0
C0
C0
C0
C0
ENDCHAR
STARTCHAR 004A
ENCODING 74
SWIDTH 504 0
DWIDTH 7 0
BBX 6 10 0 0
BITMAP
04
04
04
04
04
04
C4
C4
4C
38
ENDCHAR
STARTCHAR 004B
ENCODING 75
SWIDTH 648 0
DWIDTH 9 0
BBX 8 10 1 0
BITMAP
C3
C6
CC
D8
F0
F8
C8
CC
C6
C3
ENDCHAR
STARTCHAR 004C
ENCODING 76
SWIDTH 576 0
DWIDTH 8 0
BBX 6 10 1 0
BITMAP
C0
C0
C0
C0
C0
C0
C0
C0
C0
FC
ENDCHAR
STARTCHAR 004D
ENCODING 77
SWIDTH 936 0
DWIDTH 13 0
BBX 11 10 1 0
BITMAP
C060
E0E0
E0A0
F0A0
D1A0
D120
DB20
CA20
CE20
C420
ENDCHAR
STARTCHAR 004E
ENCODING 78
SWIDTH 792 0
DWIDTH 11 0
BBX 8 10 1 0
BITMAP
C1
E1
F1
D1
D9
CD
C5
C7
C3
C1
ENDCHAR
STARTCHAR 004F
ENCODING 79
SWIDTH 792 0
DWIDTH 11 0
BBX 9 10 1 0
BITMAP
3E00
6300
C180
8080
8080
8080
8080
C180
6300
3E00
ENDCHAR
STARTCHAR 0050
ENCODING 80
SWIDTH 576 0
DWIDTH 8 0
BBX 7 10 1 0
BITMAP
FC
C4
C6
C6
C6
FC
C0
C0
C0
C0
ENDCHAR
STARTCHAR 0051
ENCODING 81
SWIDTH 792 0
DWIDTH 11 0
BBX 9 11 1 -1
BITMAP
3E00
6300
C180
8080
8080
8080
8480
C380
6300
3F80
0080
ENDCHAR
STARTCHAR 0052
ENCODING 82
SWIDTH 648 0
DWIDTH 9 0
BBX 7 10 1 0
BITMAP
FC
C6
C6
C2
C6
FC
D8
C8
CC
C6
ENDCHAR
STARTCHAR 0053
ENCODING 83
SWIDTH 576 0
DWIDTH 8 0
BBX 7 10 1 0
BITMAP
78
CC
84
C0
70
3C
06
86
CC
78
ENDCHAR
STARTCHAR 0054
ENCODING 84
SWIDTH 576 0
DWIDTH 8 0
BBX 8 10 0 0
BITMAP
FF
18
18
18
18
18
18
18
18
18
ENDCHAR
STARTCHAR 0055
ENCODING 85
SWIDTH 648 0
DWIDTH 9 0
BBX 7 10 1 0
BITMAP
82
82
82
82
82
82
82
C2
66
3C
ENDCHAR
STARTCHAR 0056
ENCODING 86
SWIDTH 648 0
DWIDTH 9 0
BBX 9 10 0 0
BITMAP
C180
4100
4100
6300
2200
3200
1600
1400
1C00
0800
ENDCHAR
STARTCHAR 0057
ENCODING 87
SWIDTH 1008 0
DWIDTH 14 0
BBX 14 10 0 0
BITMAP
C30C
4308
4708
6598
6490
2490
2CD0
3870
1860
1860
ENDCHAR
STARTCHAR 0058
ENCODING 88
SWIDTH 648 0
DWIDTH 9 0
BBX 8 10 0 0
BITMAP
C3
62
26
34
18
18
34
26
62
C3
ENDCHAR
STARTCHAR 0059
ENCODING 89
SWIDTH 648 0
DWIDTH 9 0
BBX 8 10 0 0
BITMAP
C1
63
26
34
1C
18
08
08
08
08
ENDCHAR
STARTCHAR 005A
ENCODING 90
SWIDTH 648 0
DWIDTH 9 0
BBX 7 10 1 0
BITMAP
FE
06
04
08
18
30
60
40
80
FE
ENDCHAR
STARTCHAR 005B
ENCODING 91
SWIDTH 288 0
DWIDTH 4 0
BBX 3 13 1 -2
BITMAP
E0
80
80
80
80
80
80
80
80
80
80
80
E0
ENDCHAR
STARTCHAR 005C
ENCODING 92
SWIDTH 432 0
DWIDTH 6 0
BBX 6 10 0 0
BITMAP
C0
40
40
20
20
10
10
08
08
0C
ENDCHAR
STARTCHAR 005D
ENCODING 93
SWIDTH 288 0
DWIDTH 4 0
BBX 3 13 0 -2
BITMAP
E0
20
20
20
20
20
20
20
20
20
20
20
E0
ENDCHAR
STARTCHAR 005E
ENCODING 94
SWIDTH 504 0
DWIDTH 7 0
BBX 6 5 1 5
BITMAP
20
70
58
C8
8C
ENDCHAR
STARTCHAR 005F
ENCODING 95
SWIDTH 576 0
DWIDTH 8 0
BBX 7 1 0 -1
BITMAP
FE
ENDCHAR
STARTCHAR 0060
ENCODING 96
SWIDTH 288 0
DWIDTH 4 0
BBX 2 2 1 8
BITMAP
80
40
ENDCHAR
STARTCHAR 0061
ENCODING 97
SWIDTH 504 0
DWIDTH 7 0
BBX 5 7 1 0
BITMAP
70
C8
08
78
88
98
F8
ENDCHAR
STARTCHAR 0062
ENCODING 98
SWIDTH 576 0
DWIDTH 8 0
BBX 7 10 1 0
BITMAP
80
80
80
B8
CC
C6
86
C6
C4
B8
ENDCHAR
STARTCHAR 0063
ENCODING 99
SWIDTH 504 0
DWIDTH 7 0
BBX 6 7 1 0
BITMAP
78
CC
80
80
80
CC
78
ENDCHAR
STARTCHAR 0064
ENCODING 100
SWIDTH 576 0
DWIDTH 8 0
BBX 6 10 1 0
BITMAP
04
04
04
74
CC
84
84
84
CC
74
ENDCHAR
STARTCHAR 0065
ENCODING 101
SWIDTH 576 0
DWIDTH 8 0
BBX 6 7 1 0
BITMAP
78
C8
84
FC
80
CC
78
ENDCHAR
STARTCHAR 0066
ENCODING 102
SWIDTH 360 0
DWIDTH 5 0
BBX 4 10 0 0
BITMAP
30
20
60
F0
60
60
60
60
60
60
ENDCHAR
STARTCHAR 0067
ENCODING 103
SWIDTH 576 0
DWIDTH 8 0
BBX 6 10 1 -3
BITMAP
74
CC
84
84
84
CC
74
84
CC
78
ENDCHAR
STARTCHAR 0068
ENCODING 104
SWIDTH 576 0
DWIDTH 8 0
BBX 6 10 1 0
BITMAP
80
80
80
B8
CC
8C
84
84
84
84
ENDCHAR
STARTCHAR 0069
ENCODING 105
SWIDTH 288 0
DWIDTH 4 0
BBX 2 10 1 0
BITMAP
C0
80
00
80
80
80
80
80
80
80
ENDCHAR
STARTCHAR 006A
ENCODING 106
SWIDTH 288 0
DWIDTH 4 0
BBX 3 13 0 -3
BITMAP
60
40
00
40
40
40
40
40
40
40
40
40
C0
ENDCHAR
STARTCHAR 006B
ENCODING 107
SWIDTH 504 0
DWIDTH 7 0
BBX 6 10 1 0
BITMAP
80
80
80
8C
98
B0
F0
D0
98
8C
ENDCHAR
STARTCHAR 006C
ENCODING 108
SWIDTH 288 0
DWIDTH 4 0
BBX 1 10 1 0
BITMAP
80
80
80
80
80
80
80
80
80
80
ENDCHAR
STARTCHAR 006D
ENCODING 109
SWIDTH 864 0
DWIDTH 12 0
BBX 10 7 1 0
BITMAP
BB80
CCC0
8C40
8C40
8C40
8C40
8C40
ENDCHAR
STARTCHAR 006E
ENCODING 110
SWIDTH 576 0
DWIDTH 8 0
BBX 6 7 1 0
BITMAP
B8
CC
8C
84
84
84
84
ENDCHAR
STARTCHAR 006F
ENCODING 111
SWIDTH 576 0
DWIDTH 8 0
BBX 6 7 1 0
BITMAP
78
CC
84
84
84
CC
78
ENDCHAR
STARTCHAR 0070
ENCODING 112
SWIDTH 576 0
DWIDTH 8 0
BBX 7 10 1 -3
BITMAP
B8
CC
C6
86
C6
CC
B8
80
80
80
ENDCHAR
STARTCHAR 0071
ENCODING 113
SWIDTH 576 0
DWIDTH 8 0
BBX 6 10 1 -3
BITMAP
74
CC
84
84
84
CC
74
04
04
04
ENDCHAR
STARTCHAR 0072
ENCODING 114
SWIDTH 360 0
DWIDTH 5 0
BBX 4 7 1 0
BITMAP
B0
E0
C0
80
80
80
80
ENDCHAR
STARTCHAR 0073
ENCODING 115
SWIDTH 432 0
DWIDTH 6 0
BBX 5 7 1 0
BITMAP
70
98
80
F0
18
98
F0
ENDCHAR
STARTCHAR 0074
ENCODING 116
SWIDTH 360 0
DWIDTH 5 0
BBX 4 9 0 0
BITMAP
20
20
F0
20
20
20
20
20
30
ENDCHAR
STARTCHAR 0075
ENCODING 117
SWIDTH 576 0
DWIDTH 8 0
BBX 6 7 1 0
BITMAP
8C
8C
8C
8C
8C
CC
74
ENDCHAR
STARTCHAR 0076
ENCODING 118
SWIDTH 504 0
DWIDTH 7 0
BBX 7 7 0 0
BITMAP
C6
44
44
68
28
38
10
ENDCHAR
STARTCHAR 0077
ENCODING 119
SWIDTH 792 0
DWIDTH 11 0
BBX 11 7 0 0
BITMAP
C460
4E40
4A40
6AC0
3B80
3180
3180
ENDCHAR
STARTCHAR 0078
ENCODING 120
SWIDTH 504 0
DWIDTH 7 0
BBX 6 7 0 0
BITMAP
44
6C
38
10
38
6C
C4
ENDCHAR
STARTCHAR 0079
ENCODING 121
SWIDTH 504 0
DWIDTH 7 0
BBX 7 10 0 -3
BITMAP
C2
44
64
2C
38
18
10
30
20
20
ENDCHAR
STARTCHAR 007A
ENCODING 122
SWIDTH 432 0
DWIDTH 6 0
BBX 5 7 1 0
BITMAP
F8
18
30
60
40
80
F8
ENDCHAR
STARTCHAR 007B
ENCODING 123
SWIDTH 360 0
DWIDTH 5 0
BBX 4 13 1 -2
BITMAP
30
60
40
40
40
40
80
40
40
40
40
40
30
ENDCHAR
STARTCHAR 007C
ENCODING 124
SWIDTH 288 0
DWIDTH 4 0
BBX 1 13 1 -2
BITMAP
80
80
80
80
80
80
80
80
80
80
80
80
80
ENDCHAR
STARTCHAR 007D
ENCODING 125
SWIDTH 360 0
DWIDTH 5 0
BBX 4 13 0 -2
BITMAP
C0
60
20
20
20
20
10
20
20
20
20
60
C0
ENDCHAR
STARTCHAR 007E
ENCODING 126
SWIDTH 576 0
DWIDTH 8 0
BBX 6 2 1 3
BITMAP
E4
9C
ENDCHAR
STARTCHAR 00A0
ENCODING 160
SWIDTH 216 0
DWIDTH 3 0
BBX 0 0 0 0
BITMAP
ENDCHAR
STARTCHAR 00A1
ENCODING 161
SWIDTH 288 0
DWIDTH 4 0
BBX 2 10 1 -3
BITMAP
C0
C0
00
80
80
C0
C0
C0
C0
C0
ENDCHAR
STARTCHAR 00A2
ENCODING 162
SWIDTH 576 0
DWIDTH 8 0
BBX 5 9 1 0
BITMAP
20
70
E8
A0
A0
A0
E8
30
20
ENDCHAR
STARTCHAR 00A3
ENCODING 163
SWIDTH 576 0
DWIDTH 8 0
BBX 7 9 1 0
BITMAP
38
4C
40
40
F8
60
62
C6
FC
ENDCHAR
STARTCHAR 00A4
ENCODING 164
SWIDTH 576 0
DWIDTH 8 0
BBX 6 7 1 0
BITMAP
84
FC
CC
84
CC
FC
84
ENDCHAR
STARTCHAR 00A5
ENCODING 165
SWIDTH 576 0
DWIDTH 8 0
BBX 6 9 1 0
BITMAP
84
CC
48
78
FC
30
FC
30
30
ENDCHAR
STARTCHAR 00A6
ENCODING 166
SWIDTH 288 0
DWIDTH 4 0
BBX 1 13 1 -2
BITMAP
80
80
80
80
80
80
00
80
80
80
80
80
80
ENDCHAR
STARTCHAR 00A7
ENCODING 167
SWIDTH 576 0
DWIDTH 8 0
BBX 6 13 1 -3
BITMAP
78
CC
CC
C0
70
D8
CC
6C
38
0C
8C
CC
78
ENDCHAR
STARTCHAR 00A8
ENCODING 168
SWIDTH 360 0
DWIDTH 5 0
BBX 4 1 1 8
BITMAP
B0
ENDCHAR
STARTCHAR 00A9
ENCODING 169
SWIDTH 792 0
DWIDTH 11 0
BBX 10 10 1 0
BITMAP
3E00
6100
DC80
B2C0
A040
A040
B2C0
DC80
6100
3E00
ENDCHAR
STARTCHAR 00AA
ENCODING 170
SWIDTH 432 0
DWIDTH 6 0
BBX 4 5 1 4
BITMAP
60
90
F0
90
F0
ENDCHAR
STARTCHAR 00AB
ENCODING 171
SWIDTH 504 0
DWIDTH 7 0
BBX 5 6 1 1
BITMAP
48
D0
B0
B0
D0
48
ENDCHAR
STARTCHAR 00AC
ENCODING 172
SWIDTH 576 0
DWIDTH 8 0
BBX 6 4 1 2
BITMAP
FC
04
04
04
ENDCHAR
STARTCHAR 00AD
ENCODING 173
SWIDTH 360 0
DWIDTH 5 0
BBX 3 1 1 3
BITMAP
E0
ENDCHAR
STARTCHAR 00AE
ENCODING 174
SWIDTH 792 0
DWIDTH 11 0
BBX 10 10 1 0
BITMAP
3E00
6100
DC80
92C0
9240
9C40
94C0
9680
6100
3E00
ENDCHAR
STARTCHAR 00AF
ENCODING 175
SWIDTH 360 0
DWIDTH 5 0
BBX 4 1 0 8
BITMAP
F0
ENDCHAR
STARTCHAR 00B0
ENCODING 176
SWIDTH 360 0
DWIDTH 5 0
BBX 5 4 0 5
BITMAP
70
D8
C8
70
ENDCHAR
STARTCHAR 00B1
ENCODING 177
SWIDTH 576 0
DWIDTH 8 0
BBX 6 6 1 1
BITMAP
20
20
FC
20
20
FC
ENDCHAR
STARTCHAR 00B2
ENCODING 178
SWIDTH 360 0
DWIDTH 5 0
BBX 4 5 1 5
BITMAP
E0
B0
20
C0
F0
ENDCHAR
STARTCHAR 00B3
ENCODING 179
SWIDTH 432 0
DWIDTH 6 0
BBX 4 5 1 5
BITMAP
F0
20
70
90
E0
ENDCHAR
STARTCHAR 00B4
ENCODING 180
SWIDTH 288 0
DWIDTH 4 0
BBX 2 2 1 8
BITMAP
C0
80
ENDCHAR
STARTCHAR 00B5
ENCODING 181
SWIDTH 576 0
DWIDTH 8 0
BBX 6 10 1 -3
BITMAP
8C
8C
8C
8C
8C
CC
F4
80
80
80
ENDCHAR
STARTCHAR 00B6
ENCODING 182
SWIDTH 648 0
DWIDTH 9 0
BBX 8 13 0 -3
BITMAP
3F
7A
FA
7A
7A
1A
1A
1A
1A
1A
1A
1A
1A
ENDCHAR
STARTCHAR 00B7
ENCODING 183
SWIDTH 288 0
DWIDTH 4 0
BBX 2 2 1 3
BITMAP
C0
C0
ENDCHAR
STARTCHAR 00B8
ENCODING 184
SWIDTH 288 0
DWIDTH 4 0
BBX 3 3 1 -3
BITMAP
C0
20
C0
ENDCHAR
STARTCHAR 00B9
ENCODING 185
SWIDTH 288 0
DWIDTH 4 0
BBX 2 5 1 5
BITMAP
40
C0
40
40
40
ENDCHAR
STARTCHAR 00BA
ENCODING 186
SWIDTH 504 0
DWIDTH 7 0
BBX 5 5 1 4
BITMAP
70
98
88
98
70
ENDCHAR
STARTCHAR 00BB
ENCODING 187
SWIDTH 504 0
DWIDTH 7 0
BBX 5 6 1 1
BITMAP
B0
90
58
48
90
B0
ENDCHAR
STARTCHAR 00BC
ENCODING 188
SWIDTH 792 0
DWIDTH 11 0
BBX 9 9 1 0
BITMAP
4200
C200
4400
4800
5900
1300
2500
4780
C100
ENDCHAR
STARTCHAR 00BD
ENCODING 189
SWIDTH 792 0
DWIDTH 11 0
BBX 9 9 1 0
BITMAP
4200
C600
4400
4800
5B80
1480
2180
4200
C780
ENDCHAR
STARTCHAR 00BE
ENCODING 190
SWIDTH 864 0
DWIDTH 12 0
BBX 10 9 1 0
BITMAP
F180
2100
7200
9600
E480
0980
1280
33C0
2080
ENDCHAR
STARTCHAR 00BF
ENCODING 191
SWIDTH 504 0
DWIDTH 7 0
BBX 6 10 0 -3
BITMAP
10
10
00
10
30
60
C0
C4
C4
78
ENDCHAR
STARTCHAR 00C0
ENCODING 192
SWIDTH 720 0
DWIDTH 10 0
BBX 9 12 0 0
BITMAP
1800
0000
0C00
1C00
1600
1200
3200
2300
7F00
6180
4180
C080
ENDCHAR
STARTCHAR 00C1
ENCODING 193
SWIDTH 720 0
DWIDTH 10 0
BBX 9 12 0 0
BITMAP
0400
0000
0C00
1C00
1600
1200
3200
2300
7F00
6180
4180
C080
ENDCHAR
STARTCHAR 00C2
ENCODING 194
SWIDTH 720 0
DWIDTH 10 0
BBX 9 12 0 0
BITMAP
1C00
0000
0C00
1C00
1600
1200
3200
2300
7F00
6180
4180
C080
ENDCHAR
STARTCHAR 00C3
ENCODING 195
SWIDTH 720 0
DWIDTH 10 0
BBX 9 12 0 0
BITMAP
1A00
1600
0C00
1C00
1600
1200
3200
2300
7F00
6180
4180
C080
ENDCHAR
STARTCHAR 00C4
ENCODING 196
SWIDTH 720 0
DWIDTH 10 0
BBX 9 12 0 0
BITMAP
3300
0000
0C00
1C00
1600
1200
3200
2300
7F00
6180
4180
C080
ENDCHAR
STARTCHAR 00C5
ENCODING 197
SWIDTH 720 0
DWIDTH 10 0
BBX 9 12 0 0
BITMAP
0C00
1400
0C00
1C00
1600
1200
3200
2300
3F00
6180
4180
C080
ENDCHAR
STARTCHAR 00C6
ENCODING 198
SWIDTH 1008 0
DWIDTH 14 0
BBX 13 10 0 0
BITMAP
03F8
0380
0780
0D80
0D80
19F8
3180
3F80
6180
C1F8
ENDCHAR
STARTCHAR 00C7
ENCODING 199
SWIDTH 720 0
DWIDTH 10 0
BBX 9 13 1 -3
BITMAP
3E00
6300
C180
8000
8000
8000
8000
C180
6300
3E00
0800
0400
1C00
ENDCHAR
STARTCHAR 00C8
ENCODING 200
SWIDTH 576 0
DWIDTH 8 0
BBX 6 12 1 0
BITMAP
30
00
FC
C0
C0
C0
C0
FC
C0
C0
C0
FC
ENDCHAR
STARTCHAR 00C9
ENCODING 201
SWIDTH 576 0
DWIDTH 8 0
BBX 6 12 1 0
BITMAP
18
00
FC
C0
C0
C0
C0
FC
C0
C0
C0
FC
ENDCHAR
STARTCHAR 00CA
ENCODING 202
SWIDTH 576 0
DWIDTH 8 0
BBX 6 12 1 0
BITMAP
38
00
FC
C0
C0
C0
C0
FC
C0
C0
C0
FC
ENDCHAR
STARTCHAR 00CB
ENCODING 203
SWIDTH 576 0
DWIDTH 8 0
BBX 6 12 1 0
BITMAP
4C
00
FC
C0
C0
C0
C0
FC
C0
C0
C0
FC
ENDCHAR
STARTCHAR 00CC
ENCODING 204
SWIDTH 288 0
DWIDTH 4 0
BBX 3 12 0 0
BITMAP
C0
00
60
60
60
60
60
60
60
60
60
60
ENDCHAR
STARTCHAR 00CD
ENCODING 205
SWIDTH 288 0
DWIDTH 4 0
BBX 3 12 1 0
BITMAP
60
00
C0
C0
C0
C0
C0
C0
C0
C0
C0
C0
ENDCHAR
STARTCHAR 00CE
ENCODING 206
SWIDTH 288 0
DWIDTH 4 0
BBX 4 12 0 0
BITMAP
F0
00
60
60
60
60
60
60
60
60
60
60
ENDCHAR
STARTCHAR 00CF
ENCODING 207
SWIDTH 288 0
DWIDTH 4 0
BBX 4 12 0 0
BITMAP
F0
00
60
60
60
60
60
60
60
60
60
60
ENDCHAR
STARTCHAR 00D0
ENCODING 208
SWIDTH 720 0
DWIDTH 10 0
BBX 9 10 0 0
BITMAP
7E00
6300
6180
6080
F080
6080
6080
6180
6300
7E00
ENDCHAR
STARTCHAR 00D1
ENCODING 209
SWIDTH 792 0
DWIDTH 11 0
BBX 8 12 1 0
BITMAP
32
2C
C1
E1
F1
D1
D9
CD
C5
C7
C3
C1
ENDCHAR
STARTCHAR 00D2
ENCODING 210
SWIDTH 792 0
DWIDTH 11 0
BBX 9 12 1 0
BITMAP
1000
0800
3E00
6300
C180
8080
8080
8080
8080
C180
6300
3E00
ENDCHAR
STARTCHAR 00D3
ENCODING 211
SWIDTH 792 0
DWIDTH 11 0
BBX 9 12 1 0
BITMAP
0600
0C00
3E00
6300
C180
8080
8080
8080
8080
C180
6300
3E00
ENDCHAR
STARTCHAR 00D4
ENCODING 212
SWIDTH 792 0
DWIDTH 11 0
BBX 9 12 1 0
BITMAP
1C00
1600
3E00
6300
C180
8080
8080
8080
8080
C180
6300
3E00
ENDCHAR
STARTCHAR 00D5
ENCODING 213
SWIDTH 792 0
DWIDTH 11 0
BBX 9 12 1 0
BITMAP
1A00
2400
3E00
6300
C180
8080
8080
8080
8080
C180
6300
3E00
ENDCHAR
STARTCHAR 00D6
ENCODING 214
SWIDTH 792 0
DWIDTH 11 0
BBX 9 12 1 0
BITMAP
2200
2200
3E00
6300
C180
8080
8080
8080
8080
C180
6300
3E00
ENDCHAR
STARTCHAR 00D7
ENCODING 215
SWIDTH 504 0
DWIDTH 7 0
BBX 6 6 1 1
BITMAP
8C
D8
70
70
D8
8C
ENDCHAR
STARTCHAR 00D8
ENCODING 216
SWIDTH 792 0
DWIDTH 11 0
BBX 9 12 1 -1
BITMAP
0080
3F80
6300
C380
8680
8C80
9880
9080
E180
6300
FE00
8000
ENDCHAR
STARTCHAR 00D9
ENCODING 217
SWIDTH 648 0
DWIDTH 9 0
BBX 7 12 1 0
BITMAP
30
00
82
82
82
82
82
82
82
C2
66
3C
ENDCHAR
STARTCHAR 00DA
ENCODING 218
SWIDTH 648 0
DWIDTH 9 0
BBX 7 12 1 0
BITMAP
18
00
82
82
82
82
82
82
82
C2
66
3C
ENDCHAR
STARTCHAR 00DB
ENCODING 219
SWIDTH 648 0
DWIDTH 9 0
BBX 7 12 1 0
BITMAP
38
00
82
82
82
82
82
82
82
C2
66
3C
ENDCHAR
STARTCHAR 00DC
ENCODING 220
SWIDTH 648 0
DWIDTH 9 0
BBX 7 12 1 0
BITMAP
6C
00
82
82
82
82
82
82
82
C2
66
3C
ENDCHAR
STARTCHAR 00DD
ENCODING 221
SWIDTH 648 0
DWIDTH 9 0
BBX 8 12 0 0
BITMAP
0C
00
C1
63
26
34
1C
18
08
08
08
08
ENDCHAR
STARTCHAR 00DE
ENCODING 222
SWIDTH 576 0
DWIDTH 8 0
BBX 7 10 1 0
BITMAP
C0
C0
FC
C4
C6
C6
C6
FC
C0
C0
ENDCHAR
STARTCHAR 00DF
ENCODING 223
SWIDTH 576 0
DWIDTH 8 0
BBX 6 10 1 0
BITMAP
78
4C
C4
8C
98
90
9C
84
A4
9C
ENDCHAR
STARTCHAR 00E0
ENCODING 224
SWIDTH 504 0
DWIDTH 7 0
BBX 5 10 1 0
BITMAP
40
20
00
70
C8
08
78
88
98
F8
ENDCHAR
STARTCHAR 00E1
ENCODING 225
SWIDTH 504 0
DWIDTH 7 0
BBX 5 10 1 0
BITMAP
10
30
00
70
C8
08
78
88
98
F8
ENDCHAR
STARTCHAR 00E2
ENCODING 226
SWIDTH 504 0
DWIDTH 7 0
BBX 5 10 1 0
BITMAP
30
58
00
70
C8
08
78
88
98
F8
ENDCHAR
STARTCHAR 00E3
ENCODING 227
SWIDTH 504 0
DWIDTH 7 0
BBX 5 10 1 0
BITMAP
60
78
10
70
C8
08
78
88
98
F8
ENDCHAR
STARTCHAR 00E4
ENCODING 228
SWIDTH 504 0
DWIDTH 7 0
BBX 5 10 1 0
BITMAP
58
58
00
70
C8
08
78
88
98
F8
ENDCHAR
STARTCHAR 00E5
ENCODING 229
SWIDTH 504 0
DWIDTH 7 0
BBX 5 11 1 0
BITMAP
30
50
50
30
70
C8
08
78
88
98
F8
ENDCHAR
STARTCHAR 00E6
ENCODING 230
SWIDTH 864 0
DWIDTH 12 0
BBX 11 7 1 0
BITMAP
7380
CC40
0C40
7FE0
8C00
8C40
F380
ENDCHAR
STARTCHAR 00E7
ENCODING 231
SWIDTH 504 0
DWIDTH 7 0
BBX 6 10 1 -3
BITMAP
78
CC
80
80
80
CC
78
30
10
70
ENDCHAR
STARTCHAR 00E8
ENCODING 232
SWIDTH 576 0
DWIDTH 8 0
BBX 6 10 1 0
BITMAP
60
20
00
78
C8
84
FC
80
CC
78
ENDCHAR
STARTCHAR 00E9
ENCODING 233
SWIDTH 576 0
DWIDTH 8 0
BBX 6 10 1 0
BITMAP
18
30
00
78
C8
84
FC
80
CC
78
ENDCHAR
STARTCHAR 00EA
ENCODING 234
SWIDTH 576 0
DWIDTH 8 0
BBX 6 10 1 0
BITMAP
30
58
00
78
C8
84
FC
80
CC
78
ENDCHAR
STARTCHAR 00EB
ENCODING 235
SWIDTH 576 0
DWIDTH 8 0
BBX 6 10 1 0
BITMAP
58
58
00
78
C8
84
FC
80
CC
78
ENDCHAR
STARTCHAR 00EC
ENCODING 236
SWIDTH 288 0
DWIDTH 4 0
BBX 2 10 0 0
BITMAP
80
40
00
40
40
40
40
40
40
40
ENDCHAR
STARTCHAR 00ED
ENCODING 237
SWIDTH 288 0
DWIDTH 4 0
BBX 3 10 1 0
BITMAP
60
C0
00
80
80
80
80
80
80
80
ENDCHAR
STARTCHAR 00EE
ENCODING 238
SWIDTH 288 0
DWIDTH 4 0
BBX 4 10 0 0
BITMAP
60
B0
00
40
40
40
40
40
40
40
ENDCHAR
STARTCHAR 00EF
ENCODING 239
SWIDTH 288 0
DWIDTH 4 0
BBX 3 9 0 0
BITMAP
A0
00
40
40
40
40
40
40
40
ENDCHAR
STARTCHAR 00F0
ENCODING 240
SWIDTH 576 0
DWIDTH 8 0
BBX 6 10 1 0
BITMAP
60
38
78
0C
7C
8C
84
84
CC
78
ENDCHAR
STARTCHAR 00F1
ENCODING 241
SWIDTH 576 0
DWIDTH 8 0
BBX 6 10 1 0
BITMAP
68
58
00
B8
CC
8C
84
84
84
84
ENDCHAR
STARTCHAR 00F2
ENCODING 242
SWIDTH 576 0
DWIDTH 8 0
BBX 6 10 1 0
BITMAP
60
20
00
78
CC
84
84
84
CC
78
ENDCHAR
STARTCHAR 00F3
ENCODING 243
SWIDTH 576 0
DWIDTH 8 0
BBX 6 10 1 0
BITMAP
18
30
00
78
CC
84
84
84
CC
78
ENDCHAR
STARTCHAR 00F4
ENCODING 244
SWIDTH 576 0
DWIDTH 8 0
BBX 6 10 1 0
BITMAP
30
48
00
78
CC
84
84
84
CC
78
ENDCHAR
STARTCHAR 00F5
ENCODING 245
SWIDTH 576 0
DWIDTH 8 0
BBX 6 10 1 0
BITMAP
60
78
18
78
CC
84
84
84
CC
78
ENDCHAR
STARTCHAR 00F6
ENCODING 246
SWIDTH 576 0
DWIDTH 8 0
BBX 6 10 1 0
BITMAP
48
48
00
78
CC
84
84
84
CC
78
ENDCHAR
STARTCHAR 00F7
ENCODING 247
SWIDTH 576 0
DWIDTH 8 0
BBX 6 6 1 1
BITMAP
30
30
00
FC
00
30
ENDCHAR
STARTCHAR 00F8
ENCODING 248
SWIDTH 576 0
DWIDTH 8 0
BBX 6 9 1 -1
BITMAP
04
7C
CC
94
B4
A4
CC
F8
80
ENDCHAR
STARTCHAR 00F9
ENCODING 249
SWIDTH 576 0
DWIDTH 8 0
BBX 6 10 1 0
BITMAP
60
20
00
8C
8C
8C
8C
8C
CC
74
ENDCHAR
STARTCHAR 00FA
ENCODING 250
SWIDTH 576 0
DWIDTH 8 0
BBX 6 10 1 0
BITMAP
10
30
00
8C
8C
8C
8C
8C
CC
74
ENDCHAR
STARTCHAR 00FB
ENCODING 251
SWIDTH 576 0
DWIDTH 8 0
BBX 6 10 1 0
BITMAP
30
58
00
8C
8C
8C
8C
8C
CC
74
ENDCHAR
STARTCHAR 00FC
ENCODING 252
SWIDTH 576 0
DWIDTH 8 0
BBX 6 10 1 0
BITMAP
58
58
00
8C
8C
8C
8C
8C
CC
74
ENDCHAR
STARTCHAR 00FD
ENCODING 253
SWIDTH 504 0
DWIDTH 7 0
BBX 7 13 0 -3
BITMAP
08
10
00
C2
44
64
2C
38
18
10
30
20
20
ENDCHAR
STARTCHAR 00FE
ENCODING 254
SWIDTH 576 0
DWIDTH 8 0
BBX 7 13 1 -3
BITMAP
80
80
80
B8
CC
C6
86
C6
CC
B8
80
80
80
ENDCHAR
STARTCHAR 00FF
ENCODING 255
SWIDTH 504 0
DWIDTH 7 0
BBX 7 13 0 -3
BITMAP
2C
2C
00
C2
44
64
2C
38
18
10
30
20
20
ENDCHAR
STARTCHAR 0131
ENCODING 305
SWIDTH 288 0
DWIDTH 4 0
BBX 1 7 1 0
BITMAP
80
80
80
80
80
80
80
ENDCHAR
STARTCHAR 0141
ENCODING 321
SWIDTH 576 0
DWIDTH 8 0
BBX 7 10 0 0
BITMAP
60
60
60
68
78
E0
60
60
60
7E
ENDCHAR
STARTCHAR 0142
ENCODING 322
SWIDTH 288 0
DWIDTH 4 0
BBX 4 10 0 0
BITMAP
60
60
60
60
70
E0
E0
60
60
60
ENDCHAR
STARTCHAR 0152
ENCODING 338
SWIDTH 1152 0
DWIDTH 16 0
BBX 14 10 1 0
BITMAP
3EFC
6380
C080
8080
80FC
8080
8080
C180
6380
3EFC
ENDCHAR
STARTCHAR 0153
ENCODING 339
SWIDTH 936 0
DWIDTH 13 0
BBX 11 7 1 0
BITMAP
79C0
CE60
8620
87E0
8400
CE20
79C0
ENDCHAR
STARTCHAR 0160
ENCODING 352
SWIDTH 576 0
DWIDTH 8 0
BBX 7 12 1 0
BITMAP
68
30
78
CC
84
C0
70
3C
06
86
CC
78
ENDCHAR
STARTCHAR 0161
ENCODING 353
SWIDTH 432 0
DWIDTH 6 0
BBX 5 10 1 0
BITMAP
D0
60
00
70
98
80
F0
18
98
F0
ENDCHAR
STARTCHAR 0178
ENCODING 376
SWIDTH 648 0
DWIDTH 9 0
BBX 8 12 0 0
BITMAP
26
00
C1
63
26
34
1C
18
08
08
08
08
ENDCHAR
STARTCHAR 017D
ENCODING 381
SWIDTH 648 0
DWIDTH 9 0
BBX 7 12 1 0
BITMAP
28
10
FE
06
04
08
18
30
60
40
80
FE
ENDCHAR
STARTCHAR 017E
ENCODING 382
SWIDTH 432 0
DWIDTH 6 0
BBX 5 10 1 0
BITMAP
D0
60
00
F8
18
30
60
40
80
F8
ENDCHAR
STARTCHAR 0192
ENCODING 402
SWIDTH 504 0
DWIDTH 7 0
BBX 7 12 0 -2
BITMAP
0E
18
10
7C
10
30
30
20
20
20
60
C0
ENDCHAR
STARTCHAR 02C6
ENCODING 710
SWIDTH 360 0
DWIDTH 5 0
BBX 3 1 1 8
BITMAP
E0
ENDCHAR
STARTCHAR 02C7
ENCODING 711
SWIDTH 360 0
DWIDTH 5 0
BBX 4 2 1 8
BITMAP
B0
60
ENDCHAR
STARTCHAR 02C9
ENCODING 713
SWIDTH 360 0
DWIDTH 5 0
BBX 4 1 0 8
BITMAP
F0
ENDCHAR
STARTCHAR 02D8
ENCODING 728
SWIDTH 360 0
DWIDTH 5 0
BBX 3 2 1 8
BITMAP
A0
E0
ENDCHAR
STARTCHAR 02D9
ENCODING 729
SWIDTH 144 0
DWIDTH 2 0
BBX 2 1 0 8
BITMAP
C0
ENDCHAR
STARTCHAR 02DA
ENCODING 730
SWIDTH 288 0
DWIDTH 4 0
BBX 4 4 0 7
BITMAP
60
90
90
60
ENDCHAR
STARTCHAR 02DB
ENCODING 731
SWIDTH 216 0
DWIDTH 3 0
BBX 3 3 0 -3
BITMAP
40
C0
60
ENDCHAR
STARTCHAR 02DC
ENCODING 732
SWIDTH 360 0
DWIDTH 5 0
BBX 5 2 0 7
BITMAP
68
90
ENDCHAR
STARTCHAR 02DD
ENCODING 733
SWIDTH 360 0
DWIDTH 5 0
BBX 3 2 1 8
BITMAP
A0
A0
ENDCHAR
STARTCHAR 0394
ENCODING 916
SWIDTH 648 0
DWIDTH 9 0
BBX 9 10 0 0
BITMAP
0C00
1C00
1400
1600
2200
2200
6300
4100
4180
FF80
ENDCHAR
STARTCHAR 03A9
ENCODING 937
SWIDTH 792 0
DWIDTH 11 0
BBX 9 10 1 0
BITMAP
3E00
6300
C180
8080
8080
8080
C080
4100
3600
F780
ENDCHAR
STARTCHAR 03BC
ENCODING 956
SWIDTH 576 0
DWIDTH 8 0
BBX 6 10 1 -3
BITMAP
8C
8C
8C
8C
8C
CC
F4
80
80
80
ENDCHAR
STARTCHAR 03C0
ENCODING 960
SWIDTH 648 0
DWIDTH 9 0
BBX 7 7 1 0
BITMAP
FE
4C
4C
4C
4C
4C
46
ENDCHAR
STARTCHAR 2007
ENCODING 8199
SWIDTH 648 0
DWIDTH 9 0
BBX 0 0 0 0
BITMAP
ENDCHAR
STARTCHAR 2008
ENCODING 8200
SWIDTH 288 0
DWIDTH 4 0
BBX 0 0 0 0
BITMAP
ENDCHAR
STARTCHAR 200B
ENCODING 8203
SWIDTH 0 0
DWIDTH 0 0
BBX 0 0 0 0
BITMAP
ENDCHAR
STARTCHAR 2013
ENCODING 8211
SWIDTH 648 0
DWIDTH 9 0
BBX 7 1 1 3
BITMAP
FE
ENDCHAR
STARTCHAR 2014
ENCODING 8212
SWIDTH 1080 0
DWIDTH 15 0
BBX 13 1 1 3
BITMAP
FFF8
ENDCHAR
STARTCHAR 2018
ENCODING 8216
SWIDTH 216 0
DWIDTH 3 0
BBX 1 4 1 6
BITMAP
80
80
80
80
ENDCHAR
STARTCHAR 2019
ENCODING 8217
SWIDTH 216 0
DWIDTH 3 0
BBX 2 4 1 6
BITMAP
80
C0
80
80
ENDCHAR
STARTCHAR 201A
ENCODING 8218
SWIDTH 216 0
DWIDTH 3 0
BBX 2 4 1 -2
BITMAP
80
C0
80
80
ENDCHAR
STARTCHAR 201C
ENCODING 8220
SWIDTH 360 0
DWIDTH 5 0
BBX 4 4 1 6
BITMAP
90
A0
B0
B0
ENDCHAR
STARTCHAR 201D
ENCODING 8221
SWIDTH 360 0
DWIDTH 5 0
BBX 4 4 1 6
BITMAP
B0
B0
90
A0
ENDCHAR
STARTCHAR 201E
ENCODING 8222
SWIDTH 360 0
DWIDTH 5 0
BBX 4 4 1 -2
BITMAP
B0
B0
90
A0
ENDCHAR
STARTCHAR 2020
ENCODING 8224
SWIDTH 360 0
DWIDTH 5 0
BBX 5 8 0 2
BITMAP
20
20
F8
20
20
20
20
20
ENDCHAR
STARTCHAR 2021
ENCODING 8225
SWIDTH 432 0
DWIDTH 6 0
BBX 4 10 1 0
BITMAP
60
60
F0
60
60
60
60
F0
60
60
ENDCHAR
STARTCHAR 2022
ENCODING 8226
SWIDTH 576 0
DWIDTH 8 0
BBX 6 6 1 1
BITMAP
70
F8
FC
FC
F8
70
ENDCHAR
STARTCHAR 2026
ENCODING 8230
SWIDTH 936 0
DWIDTH 13 0
BBX 11 2 1 0
BITMAP
C460
C460
ENDCHAR
STARTCHAR 2030
ENCODING 8240
SWIDTH 1080 0
DWIDTH 15 0
BBX 13 9 1 0
BITMAP
6100
9300
9200
F400
0800
1BF0
16C8
26C8
43F0
ENDCHAR
STARTCHAR 2039
ENCODING 8249
SWIDTH 288 0
DWIDTH 4 0
BBX 2 6 1 1
BITMAP
40
C0
80
80
C0
40
ENDCHAR
STARTCHAR 203A
ENCODING 8250
SWIDTH 288 0
DWIDTH 4 0
BBX 2 6 1 1
BITMAP
80
80
40
40
80
80
ENDCHAR
STARTCHAR 2042
ENCODING 8258
SWIDTH 864 0
DWIDTH 12 0
BBX 10 10 1 0
BITMAP
0800
1A00
0C00
1400
0000
0000
4100
F3C0
6180
B2C0
ENDCHAR
STARTCHAR 2044
ENCODING 8260
SWIDTH 576 0
DWIDTH 8 0
BBX 7 9 0 0
BITMAP
02
06
04
08
10
10
20
40
C0
ENDCHAR
STARTCHAR 2051
ENCODING 8273
SWIDTH 432 0
DWIDTH 6 0
BBX 4 10 1 0
BITMAP
40
D0
60
F0
00
00
40
F0
60
90
ENDCHAR
STARTCHAR 2070
ENCODING 8304
SWIDTH 432 0
DWIDTH 6 0
BBX 4 5 1 5
BITMAP
60
90
90
90
60
ENDCHAR
STARTCHAR 2074
ENCODING 8308
SWIDTH 432 0
DWIDTH 6 0
BBX 4 5 1 5
BITMAP
20
60
A0
F0
20
ENDCHAR
STARTCHAR 2075
ENCODING 8309
SWIDTH 432 0
DWIDTH 6 0
BBX 4 5 1 5
BITMAP
60
80
E0
10
E0
ENDCHAR
STARTCHAR 2076
ENCODING 8310
SWIDTH 432 0
DWIDTH 6 0
BBX 4 5 1 5
BITMAP
70
80
F0
90
E0
ENDCHAR
STARTCHAR 2077
ENCODING 8311
SWIDTH 432 0
DWIDTH 6 0
BBX 4 5 1 5
BITMAP
F0
20
60
40
40
ENDCHAR
STARTCHAR 2078
ENCODING 8312
SWIDTH 432 0
DWIDTH 6 0
BBX 4 5 1 5
BITMAP
E0
90
60
90
E0
ENDCHAR
STARTCHAR 2079
ENCODING 8313
SWIDTH 432 0
DWIDTH 6 0
BBX 4 5 1 5
BITMAP
E0
90
F0
30
E0
ENDCHAR
STARTCHAR 2080
ENCODING 8320
SWIDTH 432 0
DWIDTH 6 0
BBX 4 5 1 -1
BITMAP
60
90
90
90
60
ENDCHAR
STARTCHAR 2081
ENCODING 8321
SWIDTH 288 0
DWIDTH 4 0
BBX 2 5 1 -1
BITMAP
40
C0
40
40
40
ENDCHAR
STARTCHAR 2082
ENCODING 8322
SWIDTH 360 0
DWIDTH 5 0
BBX 4 5 1 -1
BITMAP
E0
B0
20
C0
F0
ENDCHAR
STARTCHAR 2083
ENCODING 8323
SWIDTH 432 0
DWIDTH 6 0
BBX 4 5 1 -1
BITMAP
F0
20
70
90
E0
ENDCHAR
STARTCHAR 2084
ENCODING 8324
SWIDTH 432 0
DWIDTH 6 0
BBX 4 5 1 -1
BITMAP
20
60
A0
F0
20
ENDCHAR
STARTCHAR 2085
ENCODING 8325
SWIDTH 432 0
DWIDTH 6 0
BBX 4 5 1 -1
BITMAP
60
80
E0
10
E0
ENDCHAR
STARTCHAR 2086
ENCODING 8326
SWIDTH 432 0
DWIDTH 6 0
BBX 4 5 1 -1
BITMAP
70
80
F0
90
E0
ENDCHAR
STARTCHAR 2087
ENCODING 8327
SWIDTH 432 0
DWIDTH 6 0
BBX 4 5 1 -1
BITMAP
F0
20
60
40
40
ENDCHAR
STARTCHAR 2088
ENCODING 8328
SWIDTH 432 0
DWIDTH 6 0
BBX 4 5 1 -1
BITMAP
E0
90
60
90
E0
ENDCHAR
STARTCHAR 2089
ENCODING 8329
SWIDTH 432 0
DWIDTH 6 0
BBX 4 5 1 -1
BITMAP
E0
90
F0
30
E0
ENDCHAR
STARTCHAR 20AC
ENCODING 8364
SWIDTH 720 0
DWIDTH 10 0
BBX 8 9 1 0
BITMAP
1F
30
60
FC
40
F8
60
31
1F
ENDCHAR
STARTCHAR 2113
ENCODING 8467
SWIDTH 432 0
DWIDTH 6 0
BBX 5 9 0 0
BITMAP
38
68
68
78
70
E0
E0
60
38
ENDCHAR
STARTCHAR 2122
ENCODING 8482
SWIDTH 864 0
DWIDTH 12 0
BBX 11 5 0 5
BITMAP
FE20
2660
2760
27A0
26A0
ENDCHAR
STARTCHAR 2126
ENCODING 8486
SWIDTH 792 0
DWIDTH 11 0
BBX 9 10 1 0
BITMAP
3E00
6300
C180
8080
8080
8080
C080
4100
3600
F780
ENDCHAR
STARTCHAR 2160
ENCODING 8544
SWIDTH 504 0
DWIDTH 7 0
BBX 5 9 1 0
BITMAP
F8
20
20
20
20
20
20
20
F8
ENDCHAR
STARTCHAR 2161
ENCODING 8545
SWIDTH 792 0
DWIDTH 11 0
BBX 9 9 1 0
BITMAP
FF80
2200
2200
2200
2200
2200
2200
2200
FF80
ENDCHAR
STARTCHAR 2162
ENCODING 8546
SWIDTH 1080 0
DWIDTH 15 0
BBX 13 9 1 0
BITMAP
FFF8
2260
2260
2260
2260
2260
2260
2260
FFF8
ENDCHAR
STARTCHAR 2163
ENCODING 8547
SWIDTH 1008 0
DWIDTH 14 0
BBX 12 9 1 0
BITMAP
FFF0
2C60
2C40
24C0
2480
2680
2380
2300
FFF0
ENDCHAR
STARTCHAR 2164
ENCODING 8548
SWIDTH 792 0
DWIDTH 11 0
BBX 9 9 1 0
BITMAP
FF80
6300
2200
2200
3600
1400
1400
1C00
FF80
ENDCHAR
STARTCHAR 2165
ENCODING 8549
SWIDTH 1008 0
DWIDTH 14 0
BBX 12 9 1 0
BITMAP
FFF0
6340
2240
2240
3640
1440
1440
1C40
FFF0
ENDCHAR
STARTCHAR 2166
ENCODING 8550
SWIDTH 1296 0
DWIDTH 18 0
BBX 16 9 1 0
BITMAP
FFFF
6344
2244
2244
3644
1444
1444
1C44
FFFF
ENDCHAR
STARTCHAR 2167
ENCODING 8551
SWIDTH 1512 0
DWIDTH 21 0
BBX 20 9 1 0
BITMAP
FFFFF0
6344C0
2244C0
2244C0
3644C0
1444C0
1444C0
1C44C0
FFFFF0
ENDCHAR
STARTCHAR 2168
ENCODING 8552
SWIDTH 1008 0
DWIDTH 14 0
BBX 12 9 1 0
BITMAP
FFF0
2C40
2480
2380
2300
2380
2680
2CC0
FFF0
ENDCHAR
STARTCHAR 2169
ENCODING 8553
SWIDTH 792 0
DWIDTH 11 0
BBX 9 9 1 0
BITMAP
FF80
6200
3600
1C00
1800
1C00
3400
6200
FF80
ENDCHAR
STARTCHAR 216C
ENCODING 8556
SWIDTH 648 0
DWIDTH 9 0
BBX 7 9 1 0
BITMAP
F8
20
20
20
20
22
22
22
FE
ENDCHAR
STARTCHAR 216D
ENCODING 8557
SWIDTH 720 0
DWIDTH 10 0
BBX 8 9 1 0
BITMAP
3D
63
C1
80
80
80
C1
63
3D
ENDCHAR
STARTCHAR 216E
ENCODING 8558
SWIDTH 720 0
DWIDTH 10 0
BBX 8 9 1 0
BITMAP
FC
26
21
21
21
21
21
26
FC
ENDCHAR
STARTCHAR 216F
ENCODING 8559
SWIDTH 1080 0
DWIDTH 15 0
BBX 13 9 1 0
BITMAP
F078
3060
30E0
28A0
29A0
2D20
2520
2720
F278
ENDCHAR
STARTCHAR 2190
ENCODING 8592
SWIDTH 1008 0
DWIDTH 14 0
BBX 13 5 0 2
BITMAP
2000
6000
FFF8
6000
2000
ENDCHAR
STARTCHAR 2191
ENCODING 8593
SWIDTH 432 0
DWIDTH 6 0
BBX 5 13 1 -2
BITMAP
20
70
F0
28
20
20
20
20
20
20
20
20
20
ENDCHAR
STARTCHAR 2192
ENCODING 8594
SWIDTH 1008 0
DWIDTH 14 0
BBX 14 6 0 1
BITMAP
0020
0030
0038
FFFC
0030
0020
ENDCHAR
STARTCHAR 2193
ENCODING 8595
SWIDTH 432 0
DWIDTH 6 0
BBX 5 13 0 -2
BITMAP
20
20
20
20
20
20
20
20
20
20
F8
30
20
ENDCHAR
STARTCHAR 2196
ENCODING 8598
SWIDTH 864 0
DWIDTH 12 0
BBX 9 10 1 0
BITMAP
E000
C000
E000
B000
1800
0C00
0600
0300
0180
0080
ENDCHAR
STARTCHAR 2197
ENCODING 8599
SWIDTH 792 0
DWIDTH 11 0
BBX 9 10 0 0
BITMAP
0380
0180
0380
0680
0C00
1800
3000
6000
C000
8000
ENDCHAR
STARTCHAR 2198
ENCODING 8600
SWIDTH 864 0
DWIDTH 12 0
BBX 10 10 1 0
BITMAP
8000
C000
6000
3000
1800
0C00
0640
03C0
01C0
03C0
ENDCHAR
STARTCHAR 2199
ENCODING 8601
SWIDTH 792 0
DWIDTH 11 0
BBX 9 10 1 0
BITMAP
0080
0180
0300
0600
0C00
1800
B000
E000
C000
E000
ENDCHAR
STARTCHAR 21A9
ENCODING 8617
SWIDTH 864 0
DWIDTH 12 0
BBX 11 8 0 1
BITMAP
03C0
0060
0020
2020
6060
FFC0
6000
2000
ENDCHAR
STARTCHAR 21B0
ENCODING 8624
SWIDTH 792 0
DWIDTH 11 0
BBX 9 10 1 0
BITMAP
2000
6000
FF80
6180
2180
0180
0180
0180
0180
0180
ENDCHAR
STARTCHAR 21B1
ENCODING 8625
SWIDTH 720 0
DWIDTH 10 0
BBX 10 10 0 0
BITMAP
0100
0180
FFC0
C180
C100
C000
C000
C000
C000
C000
ENDCHAR
STARTCHAR 21B2
ENCODING 8626
SWIDTH 792 0
DWIDTH 11 0
BBX 9 10 0 0
BITMAP
0080
0080
0080
0080
0080
2080
6080
FF80
6000
2000
ENDCHAR
STARTCHAR 21B3
ENCODING 8627
SWIDTH 864 0
DWIDTH 12 0
BBX 10 10 1 0
BITMAP
8000
8000
8000
8000
8000
8200
8180
FFC0
0100
0200
ENDCHAR
STARTCHAR 21B4
ENCODING 8628
SWIDTH 792 0
DWIDTH 11 0
BBX 9 10 1 0
BITMAP
FF00
0100
0100
0100
0100
0100
0100
0780
0380
0100
ENDCHAR
STARTCHAR 21C6
ENCODING 8646
SWIDTH 1080 0
DWIDTH 15 0
BBX 13 10 1 0
BITMAP
2000
6000
FFF8
6000
2000
0020
0010
FFF8
0010
0020
ENDCHAR
STARTCHAR 2202
ENCODING 8706
SWIDTH 576 0
DWIDTH 8 0
BBX 7 10 1 0
BITMAP
F8
8C
04
06
7E
C6
86
84
CC
78
ENDCHAR
STARTCHAR 2206
ENCODING 8710
SWIDTH 648 0
DWIDTH 9 0
BBX 9 10 0 0
BITMAP
0C00
1C00
1400
1600
2200
2200
6300
4100
4180
FF80
ENDCHAR
STARTCHAR 220F
ENCODING 8719
SWIDTH 720 0
DWIDTH 10 0
BBX 7 10 1 0
BITMAP
FE
C2
C2
C2
C2
C2
C2
C2
C2
C2
ENDCHAR
STARTCHAR 2211
ENCODING 8721
SWIDTH 576 0
DWIDTH 8 0
BBX 7 10 1 0
BITMAP
FE
C0
60
30
18
18
30
60
C0
FE
ENDCHAR
STARTCHAR 2212
ENCODING 8722
SWIDTH 504 0
DWIDTH 7 0
BBX 6 1 1 3
BITMAP
FC
ENDCHAR
STARTCHAR 2215
ENCODING 8725
SWIDTH 432 0
DWIDTH 6 0
BBX 5 9 0 0
BITMAP
08
08
10
10
20
20
40
40
80
ENDCHAR
STARTCHAR 2219
ENCODING 8729
SWIDTH 288 0
DWIDTH 4 0
BBX 2 2 1 3
BITMAP
C0
C0
ENDCHAR
STARTCHAR 221A
ENCODING 8730
SWIDTH 648 0
DWIDTH 9 0
BBX 9 12 1 0
BITMAP
0380
0200
0600
0400
0400
8C00
C800
C800
5800
7000
3000
3000
ENDCHAR
STARTCHAR 221E
ENCODING 8734
SWIDTH 792 0
DWIDTH 11 0
BBX 9 4 1 2
BITMAP
F780
9C80
9C80
F780
ENDCHAR
STARTCHAR 222B
ENCODING 8747
SWIDTH 288 0
DWIDTH 4 0
BBX 4 13 0 -3
BITMAP
30
20
60
60
60
60
60
60
60
60
60
60
C0
ENDCHAR
STARTCHAR 2248
ENCODING 8776
SWIDTH 576 0
DWIDTH 8 0
BBX 6 4 1 1
BITMAP
E4
1C
00
FC
ENDCHAR
STARTCHAR 2260
ENCODING 8800
SWIDTH 576 0
DWIDTH 8 0
BBX 6 6 1 1
BITMAP
0C
FC
10
20
FC
40
ENDCHAR
STARTCHAR 2264
ENCODING 8804
SWIDTH 576 0
DWIDTH 8 0
BBX 6 6 1 1
BITMAP
0C
70
C0
38
04
FC
ENDCHAR
STARTCHAR 2265
ENCODING 8805
SWIDTH 576 0
DWIDTH 8 0
BBX 6 6 1 1
BITMAP
80
78
0C
F0
00
FC
ENDCHAR
STARTCHAR 22C5
ENCODING 8901
SWIDTH 288 0
DWIDTH 4 0
BBX 2 2 1 3
BITMAP
C0
C0
ENDCHAR
STARTCHAR 24C5
ENCODING 9413
SWIDTH 792 0
DWIDTH 11 0
BBX 10 10 1 0
BITMAP
3E00
6100
DC80
92C0
9240
9C40
90C0
9080
6100
3E00
ENDCHAR
STARTCHAR 25A0
ENCODING 9632
SWIDTH 936 0
DWIDTH 13 0
BBX 9 10 2 0
BITMAP
FF80
FF80
FF80
FF80
FF80
FF80
FF80
FF80
FF80
FF80
ENDCHAR
STARTCHAR 25A1
ENCODING 9633
SWIDTH 936 0
DWIDTH 13 0
BBX 9 10 2 0
BITMAP
FF80
8080
8080
8080
8080
8080
8080
8080
8080
FF80
ENDCHAR
STARTCHAR 25B2
ENCODING 9650
SWIDTH 864 0
DWIDTH 12 0
BBX 11 10 0 0
BITMAP
0400
0600
0E00
0F00
1F00
1F80
3FC0
7FC0
7FE0
FFE0
ENDCHAR
STARTCHAR 25B3
ENCODING 9651
SWIDTH 864 0
DWIDTH 12 0
BBX 11 10 0 0
BITMAP
0400
0600
0E00
0900
1900
1080
20C0
6040
4060
FFE0
ENDCHAR
STARTCHAR 25CA
ENCODING 9674
SWIDTH 576 0
DWIDTH 8 0
BBX 6 10 1 0
BITMAP
30
70
58
C8
84
84
C8
58
70
30
ENDCHAR
STARTCHAR 25CB
ENCODING 9675
SWIDTH 864 0
DWIDTH 12 0
BBX 10 10 1 0
BITMAP
1E00
6300
C080
80C0
8040
8040
80C0
C080
6100
1E00
ENDCHAR
STARTCHAR 25CF
ENCODING 9679
SWIDTH 864 0
DWIDTH 12 0
BBX 10 10 1 0
BITMAP
1E00
7F00
FF80
FFC0
FFC0
FFC0
FFC0
FF80
7F00
3E00
ENDCHAR
STARTCHAR 262E
ENCODING 9774
SWIDTH 792 0
DWIDTH 11 0
BBX 10 10 1 0
BITMAP
3E00
6900
C880
88C0
8840
9C40
ABC0
C980
6900
3E00
ENDCHAR
STARTCHAR 2713
ENCODING 10003
SWIDTH 936 0
DWIDTH 13 0
BBX 12 10 1 0
BITMAP
0010
0020
0040
00C0
0180
8300
C600
6C00
3800
1000
ENDCHAR
STARTCHAR 2715
ENCODING 10005
SWIDTH 792 0
DWIDTH 11 0
BBX 9 10 1 0
BITMAP
8080
C100
6200
3600
1C00
1C00
3600
6200
C100
8080
ENDCHAR
STARTCHAR 2780
ENCODING 10112
SWIDTH 792 0
DWIDTH 11 0
BBX 10 10 1 0
BITMAP
3E00
6100
8880
98C0
8840
8840
88C0
C080
6100
3E00
ENDCHAR
STARTCHAR 2781
ENCODING 10113
SWIDTH 792 0
DWIDTH 11 0
BBX 10 10 1 0
BITMAP
3E00
6100
9C80
94C0
8440
9840
9C80
C080
6300
1E00
ENDCHAR
STARTCHAR 2782
ENCODING 10114
SWIDTH 792 0
DWIDTH 11 0
BBX 10 10 1 0
BITMAP
3E00
6100
9C80
84C0
8C40
8640
96C0
9C80
6100
3E00
ENDCHAR
STARTCHAR 2783
ENCODING 10115
SWIDTH 792 0
DWIDTH 11 0
BBX 10 10 1 0
BITMAP
3E00
6100
8480
8CC0
9440
BE40
8480
C080
6100
1E00
ENDCHAR
STARTCHAR 2784
ENCODING 10116
SWIDTH 792 0
DWIDTH 11 0
BBX 10 10 1 0
BITMAP
3E00
6100
9C80
90C0
9C40
8440
94C0
9C80
6100
3E00
ENDCHAR
STARTCHAR 2785
ENCODING 10117
SWIDTH 792 0
DWIDTH 11 0
BBX 10 10 1 0
BITMAP
3E00
6100
8C80
90C0
9C40
B640
96C0
9C80
6100
3E00
ENDCHAR
STARTCHAR 2786
ENCODING 10118
SWIDTH 792 0
DWIDTH 11 0
BBX 10 10 1 0
BITMAP
1E00
6300
C080
9E80
8440
8840
88C0
9880
6100
3E00
ENDCHAR
STARTCHAR 2787
ENCODING 10119
SWIDTH 792 0
DWIDTH 11 0
BBX 10 10 1 0
BITMAP
3E00
6100
9C80
94C0
9C40
9640
92C0
9C80
6100
3E00
ENDCHAR
STARTCHAR 2788
ENCODING 10120
SWIDTH 792 0
DWIDTH 11 0
BBX 10 10 1 0
BITMAP
3E00
6100
9C80
96C0
9640
9E40
84C0
9C80
6100
3E00
ENDCHAR
STARTCHAR E000
ENCODING 57344
SWIDTH 792 0
DWIDTH 11 0
BBX 10 10 1 0
BITMAP
7FC0
6000
6000
6000
6000
6000
6000
F000
6000
4000
ENDCHAR
STARTCHAR E001
ENCODING 57345
SWIDTH 1080 0
DWIDTH 15 0
BBX 13 10 1 0
BITMAP
0F80
1880
3000
2030
6078
F030
6020
0020
08C0
0F80
ENDCHAR
STARTCHAR E002
ENCODING 57346
SWIDTH 936 0
DWIDTH 13 0
BBX 11 10 1 0
BITMAP
1E00
6200
C040
80C0
81E0
8040
80C0
C080
6100
1E00
ENDCHAR
STARTCHAR FB00
ENCODING 64256
SWIDTH 648 0
DWIDTH 9 0
BBX 9 10 0 0
BITMAP
3380
2200
6200
FF80
6200
6200
6200
6200
6200
6200
ENDCHAR
STARTCHAR FB01
ENCODING 64257
SWIDTH 576 0
DWIDTH 8 0
BBX 8 10 0 0
BITMAP
33
22
60
FE
62
62
62
62
62
62
ENDCHAR
STARTCHAR FB02
ENCODING 64258
SWIDTH 576 0
DWIDTH 8 0
BBX 7 10 0 0
BITMAP
32
22
62
FE
62
62
62
62
62
62
ENDCHAR
STARTCHAR FB03
ENCODING 64259
SWIDTH 936 0
DWIDTH 13 0
BBX 12 10 0 0
BITMAP
33B0
2200
6200
FFF0
6230
6230
6230
6230
6230
6230
ENDCHAR
STARTCHAR FB04
ENCODING 64260
SWIDTH 936 0
DWIDTH 13 0
BBX 12 10 0 0
BITMAP
31B0
2230
6230
FFF0
6230
6230
6230
6230
6230
6230
ENDCHAR
STARTCHAR FEFF
ENCODING 65279
SWIDTH 0 0
DWIDTH 0 0
BBX 0 0 0 0
BITMAP
ENDCHAR
ENDFONT
